<?xml version="1.0" encoding="UTF-8" standalone="no"?>
<svg
   xmlns:dc="http://purl.org/dc/elements/1.1/"
   xmlns:cc="http://creativecommons.org/ns#"
   xmlns:rdf="http://www.w3.org/1999/02/22-rdf-syntax-ns#"
   xmlns:svg="http://www.w3.org/2000/svg"
   xmlns="http://www.w3.org/2000/svg"
   xmlns:sodipodi="http://sodipodi.sourceforge.net/DTD/sodipodi-0.dtd"
   xmlns:inkscape="http://www.inkscape.org/namespaces/inkscape"
   width="16"
   height="16"
   fill="currentColor"
   class="bi bi-dash"
   viewBox="0 0 16 16"
   version="1.1"
   id="svg4"
   sodipodi:docname="dash.svg"
   inkscape:version="0.92.5 (2060ec1f9f, 2020-04-08)">
  <metadata
     id="metadata10">
    <rdf:RDF>
      <cc:Work
         rdf:about="">
        <dc:format>image/svg+xml</dc:format>
        <dc:type
           rdf:resource="http://purl.org/dc/dcmitype/StillImage" />
      </cc:Work>
    </rdf:RDF>
  </metadata>
  <defs
     id="defs8" />
  <sodipodi:namedview
     pagecolor="#ffffff"
     bordercolor="#666666"
     borderopacity="1"
     objecttolerance="10"
     gridtolerance="10"
     guidetolerance="10"
     inkscape:pageopacity="0"
     inkscape:pageshadow="2"
     inkscape:window-width="1920"
     inkscape:window-height="1015"
     id="namedview6"
     showgrid="false"
     inkscape:zoom="14.75"
     inkscape:cx="8"
     inkscape:cy="8"
     inkscape:window-x="0"
     inkscape:window-y="0"
     inkscape:window-maximized="1"
     inkscape:current-layer="svg4" />
  <path
     d="M4 8a.5.5 0 0 1 .5-.5h7a.5.5 0 0 1 0 1h-7A.5.5 0 0 1 4 8z"
     id="path2" />
  <path
     style="fill:#ffffff;stroke-width:0.06779661"
     d="M 4.1715246,8.3141109 C 4.0083965,8.1338563 4.019459,7.8554939 4.1967985,7.6781544 4.3425947,7.5323582 4.3466294,7.5322034 8,7.5322034 c 3.653371,0 3.657405,1.546e-4 3.803201,0.145951 0.17734,0.1773395 0.188402,0.4557019 0.02527,0.6359565 C 11.711278,8.4436123 11.600875,8.4474576 8,8.4474576 c -3.6008753,0 -3.7112783,-0.00385 -3.8284754,-0.1333467 z"
     id="path3715"
     inkscape:connector-curvature="0" />
</svg>
